<mxfile host="app.diagrams.net" modified="2024-05-12T21:53:42.634Z" agent="Mozilla/5.0 (Windows NT 10.0; Win64; x64) AppleWebKit/537.36 (KHTML, like Gecko) Chrome/124.0.0.0 Safari/537.36" etag="Lg_3VuzlijirRJRhMPX8" version="24.4.0" type="device">
  <diagram name="Page-1" id="bfe91b75-5d2c-26a0-9c1d-138518896778">
    <mxGraphModel dx="8767" dy="3910" grid="1" gridSize="10" guides="1" tooltips="1" connect="1" arrows="1" fold="1" page="1" pageScale="1" pageWidth="1100" pageHeight="850" background="none" math="0" shadow="0">
      <root>
        <mxCell id="0" />
        <mxCell id="1" parent="0" />
        <mxCell id="A1hN3mON-9j6iePg1sMZ-267" value="" style="rounded=1;whiteSpace=wrap;html=1;" vertex="1" parent="1">
          <mxGeometry x="-50" y="-690" width="580" height="380" as="geometry" />
        </mxCell>
        <mxCell id="A1hN3mON-9j6iePg1sMZ-6" value="" style="rounded=1;whiteSpace=wrap;html=1;" vertex="1" parent="1">
          <mxGeometry x="-610" y="-310" width="960" height="580" as="geometry" />
        </mxCell>
        <mxCell id="A1hN3mON-9j6iePg1sMZ-1" value="" style="html=1;outlineConnect=0;fillColor=#CCCCCC;strokeColor=#6881B3;gradientColor=none;gradientDirection=north;strokeWidth=2;shape=mxgraph.networks.cloud;fontColor=#ffffff;" vertex="1" parent="1">
          <mxGeometry x="450" y="340" width="450" height="260" as="geometry" />
        </mxCell>
        <mxCell id="A1hN3mON-9j6iePg1sMZ-3" value="&lt;font style=&quot;font-size: 36px;&quot;&gt;INTERNET&lt;/font&gt;" style="text;html=1;align=center;verticalAlign=middle;whiteSpace=wrap;rounded=0;" vertex="1" parent="1">
          <mxGeometry x="530" y="400" width="290" height="200" as="geometry" />
        </mxCell>
        <mxCell id="A1hN3mON-9j6iePg1sMZ-4" value="" style="fontColor=#0066CC;verticalAlign=top;verticalLabelPosition=bottom;labelPosition=center;align=center;html=1;outlineConnect=0;fillColor=#CCCCCC;strokeColor=#6881B3;gradientColor=none;gradientDirection=north;strokeWidth=2;shape=mxgraph.networks.firewall;" vertex="1" parent="1">
          <mxGeometry x="150" y="155" width="50" height="50" as="geometry" />
        </mxCell>
        <mxCell id="A1hN3mON-9j6iePg1sMZ-5" value="" style="fontColor=#0066CC;verticalAlign=top;verticalLabelPosition=bottom;labelPosition=center;align=center;html=1;outlineConnect=0;fillColor=#CCCCCC;strokeColor=#6881B3;gradientColor=none;gradientDirection=north;strokeWidth=2;shape=mxgraph.networks.firewall;" vertex="1" parent="1">
          <mxGeometry x="150" y="-70" width="50" height="50" as="geometry" />
        </mxCell>
        <mxCell id="A1hN3mON-9j6iePg1sMZ-8" value="" style="fontColor=#0066CC;verticalAlign=top;verticalLabelPosition=bottom;labelPosition=center;align=center;html=1;outlineConnect=0;fillColor=#CCCCCC;strokeColor=#6881B3;gradientColor=none;gradientDirection=north;strokeWidth=2;shape=mxgraph.networks.switch;" vertex="1" parent="1">
          <mxGeometry x="-280" y="170" width="80" height="20" as="geometry" />
        </mxCell>
        <mxCell id="A1hN3mON-9j6iePg1sMZ-9" value="" style="fontColor=#0066CC;verticalAlign=top;verticalLabelPosition=bottom;labelPosition=center;align=center;html=1;outlineConnect=0;fillColor=#CCCCCC;strokeColor=#6881B3;gradientColor=none;gradientDirection=north;strokeWidth=2;shape=mxgraph.networks.switch;" vertex="1" parent="1">
          <mxGeometry x="-280" y="30" width="80" height="20" as="geometry" />
        </mxCell>
        <mxCell id="A1hN3mON-9j6iePg1sMZ-23" style="edgeStyle=orthogonalEdgeStyle;rounded=0;orthogonalLoop=1;jettySize=auto;html=1;exitX=0;exitY=0.5;exitDx=0;exitDy=0;exitPerimeter=0;" edge="1" parent="1" source="A1hN3mON-9j6iePg1sMZ-11" target="A1hN3mON-9j6iePg1sMZ-15">
          <mxGeometry relative="1" as="geometry" />
        </mxCell>
        <mxCell id="A1hN3mON-9j6iePg1sMZ-235" style="edgeStyle=orthogonalEdgeStyle;rounded=0;orthogonalLoop=1;jettySize=auto;html=1;exitX=0.5;exitY=0;exitDx=0;exitDy=0;exitPerimeter=0;" edge="1" parent="1" source="A1hN3mON-9j6iePg1sMZ-11" target="A1hN3mON-9j6iePg1sMZ-234">
          <mxGeometry relative="1" as="geometry" />
        </mxCell>
        <mxCell id="A1hN3mON-9j6iePg1sMZ-11" value="" style="fontColor=#0066CC;verticalAlign=top;verticalLabelPosition=bottom;labelPosition=center;align=center;html=1;outlineConnect=0;fillColor=#CCCCCC;strokeColor=#6881B3;gradientColor=none;gradientDirection=north;strokeWidth=2;shape=mxgraph.networks.switch;" vertex="1" parent="1">
          <mxGeometry x="-280" y="-90" width="80" height="20" as="geometry" />
        </mxCell>
        <mxCell id="A1hN3mON-9j6iePg1sMZ-12" style="edgeStyle=orthogonalEdgeStyle;rounded=0;orthogonalLoop=1;jettySize=auto;html=1;exitX=0.5;exitY=1;exitDx=0;exitDy=0;exitPerimeter=0;" edge="1" parent="1" source="A1hN3mON-9j6iePg1sMZ-9" target="A1hN3mON-9j6iePg1sMZ-9">
          <mxGeometry relative="1" as="geometry" />
        </mxCell>
        <mxCell id="A1hN3mON-9j6iePg1sMZ-13" value="" style="fontColor=#0066CC;verticalAlign=top;verticalLabelPosition=bottom;labelPosition=center;align=center;html=1;outlineConnect=0;fillColor=#CCCCCC;strokeColor=#6881B3;gradientColor=none;gradientDirection=north;strokeWidth=2;shape=mxgraph.networks.web_server;" vertex="1" parent="1">
          <mxGeometry x="-480" y="150" width="60" height="60" as="geometry" />
        </mxCell>
        <mxCell id="A1hN3mON-9j6iePg1sMZ-15" value="" style="fontColor=#0066CC;verticalAlign=top;verticalLabelPosition=bottom;labelPosition=center;align=center;html=1;outlineConnect=0;fillColor=#CCCCCC;strokeColor=#6881B3;gradientColor=none;gradientDirection=north;strokeWidth=2;shape=mxgraph.networks.virtual_server;" vertex="1" parent="1">
          <mxGeometry x="-480" y="-110" width="60" height="60" as="geometry" />
        </mxCell>
        <mxCell id="A1hN3mON-9j6iePg1sMZ-16" value="" style="fontColor=#0066CC;verticalAlign=top;verticalLabelPosition=bottom;labelPosition=center;align=center;html=1;outlineConnect=0;fillColor=#CCCCCC;strokeColor=#6881B3;gradientColor=none;gradientDirection=north;strokeWidth=2;shape=mxgraph.networks.switch;" vertex="1" parent="1">
          <mxGeometry x="110" y="-390" width="80" height="20" as="geometry" />
        </mxCell>
        <mxCell id="A1hN3mON-9j6iePg1sMZ-17" style="edgeStyle=orthogonalEdgeStyle;rounded=0;orthogonalLoop=1;jettySize=auto;html=1;exitX=0;exitY=0.5;exitDx=0;exitDy=0;exitPerimeter=0;entryX=1;entryY=0.5;entryDx=0;entryDy=0;entryPerimeter=0;" edge="1" parent="1" source="A1hN3mON-9j6iePg1sMZ-4" target="A1hN3mON-9j6iePg1sMZ-8">
          <mxGeometry relative="1" as="geometry" />
        </mxCell>
        <mxCell id="A1hN3mON-9j6iePg1sMZ-18" style="edgeStyle=orthogonalEdgeStyle;rounded=0;orthogonalLoop=1;jettySize=auto;html=1;exitX=0;exitY=0.5;exitDx=0;exitDy=0;exitPerimeter=0;entryX=0.88;entryY=0.5;entryDx=0;entryDy=0;entryPerimeter=0;" edge="1" parent="1" source="A1hN3mON-9j6iePg1sMZ-8" target="A1hN3mON-9j6iePg1sMZ-13">
          <mxGeometry relative="1" as="geometry" />
        </mxCell>
        <mxCell id="A1hN3mON-9j6iePg1sMZ-19" style="edgeStyle=orthogonalEdgeStyle;rounded=0;orthogonalLoop=1;jettySize=auto;html=1;exitX=0.5;exitY=0;exitDx=0;exitDy=0;exitPerimeter=0;entryX=0.5;entryY=1;entryDx=0;entryDy=0;entryPerimeter=0;" edge="1" parent="1" source="A1hN3mON-9j6iePg1sMZ-4" target="A1hN3mON-9j6iePg1sMZ-5">
          <mxGeometry relative="1" as="geometry" />
        </mxCell>
        <mxCell id="A1hN3mON-9j6iePg1sMZ-20" style="edgeStyle=orthogonalEdgeStyle;rounded=0;orthogonalLoop=1;jettySize=auto;html=1;exitX=0;exitY=0.5;exitDx=0;exitDy=0;exitPerimeter=0;entryX=1;entryY=0.5;entryDx=0;entryDy=0;entryPerimeter=0;" edge="1" parent="1" source="A1hN3mON-9j6iePg1sMZ-4" target="A1hN3mON-9j6iePg1sMZ-9">
          <mxGeometry relative="1" as="geometry" />
        </mxCell>
        <mxCell id="A1hN3mON-9j6iePg1sMZ-21" style="edgeStyle=orthogonalEdgeStyle;rounded=0;orthogonalLoop=1;jettySize=auto;html=1;exitX=0.5;exitY=0;exitDx=0;exitDy=0;exitPerimeter=0;entryX=0.5;entryY=1;entryDx=0;entryDy=0;entryPerimeter=0;" edge="1" parent="1" source="A1hN3mON-9j6iePg1sMZ-9" target="A1hN3mON-9j6iePg1sMZ-11">
          <mxGeometry relative="1" as="geometry" />
        </mxCell>
        <mxCell id="A1hN3mON-9j6iePg1sMZ-22" style="edgeStyle=orthogonalEdgeStyle;rounded=0;orthogonalLoop=1;jettySize=auto;html=1;exitX=0;exitY=0.5;exitDx=0;exitDy=0;exitPerimeter=0;entryX=0.88;entryY=0.5;entryDx=0;entryDy=0;entryPerimeter=0;" edge="1" parent="1" source="A1hN3mON-9j6iePg1sMZ-9" target="A1hN3mON-9j6iePg1sMZ-233">
          <mxGeometry relative="1" as="geometry">
            <mxPoint x="-425" y="40" as="targetPoint" />
          </mxGeometry>
        </mxCell>
        <mxCell id="A1hN3mON-9j6iePg1sMZ-24" style="edgeStyle=orthogonalEdgeStyle;rounded=0;orthogonalLoop=1;jettySize=auto;html=1;exitX=0;exitY=0.5;exitDx=0;exitDy=0;exitPerimeter=0;entryX=0.5;entryY=1;entryDx=0;entryDy=0;entryPerimeter=0;" edge="1" parent="1" source="A1hN3mON-9j6iePg1sMZ-4" target="A1hN3mON-9j6iePg1sMZ-16">
          <mxGeometry relative="1" as="geometry" />
        </mxCell>
        <mxCell id="A1hN3mON-9j6iePg1sMZ-26" value="OpnSense Principal&lt;div&gt;WAN: 10.0.0.10&lt;/div&gt;&lt;div&gt;LAN: 188.165.100.2&lt;/div&gt;&lt;div&gt;DMZ: 188.165.101.2&lt;/div&gt;&lt;div&gt;LAON:188.165.102.2&lt;/div&gt;&lt;div&gt;&lt;br&gt;&lt;/div&gt;" style="text;html=1;align=center;verticalAlign=middle;whiteSpace=wrap;rounded=0;" vertex="1" parent="1">
          <mxGeometry x="10" y="205" width="140" height="65" as="geometry" />
        </mxCell>
        <mxCell id="A1hN3mON-9j6iePg1sMZ-27" value="OpnSense Secondaire&lt;div&gt;WAN: 10.0.0.11&lt;/div&gt;&lt;div&gt;LAN: 188.165.100.3&lt;/div&gt;&lt;div&gt;DMZ: 188.165.101.3&lt;/div&gt;&lt;div&gt;LAON:188.165.102.3&lt;/div&gt;&lt;div&gt;&lt;br&gt;&lt;/div&gt;" style="text;html=1;align=center;verticalAlign=middle;whiteSpace=wrap;rounded=0;" vertex="1" parent="1">
          <mxGeometry x="210" y="-65" width="140" height="65" as="geometry" />
        </mxCell>
        <mxCell id="A1hN3mON-9j6iePg1sMZ-29" value="DMZ:&lt;div&gt;188.165.101.10&lt;/div&gt;" style="text;html=1;align=center;verticalAlign=middle;whiteSpace=wrap;rounded=0;" vertex="1" parent="1">
          <mxGeometry x="-480" y="222.5" width="60" height="30" as="geometry" />
        </mxCell>
        <mxCell id="A1hN3mON-9j6iePg1sMZ-30" value="Serveur de Fichier + Samba&lt;div&gt;188.165.102.50&lt;/div&gt;" style="text;html=1;align=center;verticalAlign=middle;whiteSpace=wrap;rounded=0;" vertex="1" parent="1">
          <mxGeometry x="-510" y="80" width="120" height="30" as="geometry" />
        </mxCell>
        <mxCell id="A1hN3mON-9j6iePg1sMZ-31" style="edgeStyle=orthogonalEdgeStyle;rounded=0;orthogonalLoop=1;jettySize=auto;html=1;exitX=0.5;exitY=1;exitDx=0;exitDy=0;" edge="1" parent="1" source="A1hN3mON-9j6iePg1sMZ-29" target="A1hN3mON-9j6iePg1sMZ-29">
          <mxGeometry relative="1" as="geometry" />
        </mxCell>
        <mxCell id="A1hN3mON-9j6iePg1sMZ-32" value="&lt;div&gt;WindowServer 2022 Laon&lt;/div&gt;&lt;div&gt;188.165.102.200&lt;/div&gt;" style="text;html=1;align=center;verticalAlign=middle;whiteSpace=wrap;rounded=0;" vertex="1" parent="1">
          <mxGeometry x="-525" y="-150" width="150" height="30" as="geometry" />
        </mxCell>
        <mxCell id="A1hN3mON-9j6iePg1sMZ-56" value="" style="rounded=1;whiteSpace=wrap;html=1;" vertex="1" parent="1">
          <mxGeometry x="-960" y="610" width="690" height="400" as="geometry" />
        </mxCell>
        <mxCell id="A1hN3mON-9j6iePg1sMZ-82" style="edgeStyle=orthogonalEdgeStyle;rounded=0;orthogonalLoop=1;jettySize=auto;html=1;exitX=0.5;exitY=1;exitDx=0;exitDy=0;exitPerimeter=0;" edge="1" parent="1" source="A1hN3mON-9j6iePg1sMZ-57" target="A1hN3mON-9j6iePg1sMZ-58">
          <mxGeometry relative="1" as="geometry" />
        </mxCell>
        <mxCell id="A1hN3mON-9j6iePg1sMZ-94" style="edgeStyle=orthogonalEdgeStyle;rounded=0;orthogonalLoop=1;jettySize=auto;html=1;exitX=0;exitY=0.5;exitDx=0;exitDy=0;exitPerimeter=0;" edge="1" parent="1" source="A1hN3mON-9j6iePg1sMZ-57" target="A1hN3mON-9j6iePg1sMZ-84">
          <mxGeometry relative="1" as="geometry" />
        </mxCell>
        <mxCell id="A1hN3mON-9j6iePg1sMZ-57" value="" style="fontColor=#0066CC;verticalAlign=top;verticalLabelPosition=bottom;labelPosition=center;align=center;html=1;outlineConnect=0;fillColor=#CCCCCC;strokeColor=#6881B3;gradientColor=none;gradientDirection=north;strokeWidth=2;shape=mxgraph.networks.firewall;" vertex="1" parent="1">
          <mxGeometry x="-370" y="680" width="50" height="50" as="geometry" />
        </mxCell>
        <mxCell id="A1hN3mON-9j6iePg1sMZ-58" value="" style="fontColor=#0066CC;verticalAlign=top;verticalLabelPosition=bottom;labelPosition=center;align=center;html=1;outlineConnect=0;fillColor=#CCCCCC;strokeColor=#6881B3;gradientColor=none;gradientDirection=north;strokeWidth=2;shape=mxgraph.networks.firewall;" vertex="1" parent="1">
          <mxGeometry x="-370" y="820" width="50" height="50" as="geometry" />
        </mxCell>
        <mxCell id="A1hN3mON-9j6iePg1sMZ-63" style="edgeStyle=orthogonalEdgeStyle;rounded=0;orthogonalLoop=1;jettySize=auto;html=1;exitX=0.5;exitY=1;exitDx=0;exitDy=0;exitPerimeter=0;" edge="1" parent="1">
          <mxGeometry relative="1" as="geometry">
            <mxPoint x="-850" y="960" as="sourcePoint" />
            <mxPoint x="-850" y="960" as="targetPoint" />
          </mxGeometry>
        </mxCell>
        <mxCell id="A1hN3mON-9j6iePg1sMZ-75" value="PFSense Principal&lt;div&gt;WAN: 10.0.0.12&lt;/div&gt;&lt;div&gt;LAN: 188.165.103.2&lt;/div&gt;&lt;div&gt;SQ: 188.165.104.2&lt;/div&gt;&lt;div&gt;&lt;br&gt;&lt;/div&gt;&lt;div&gt;&lt;br&gt;&lt;/div&gt;" style="text;html=1;align=center;verticalAlign=middle;whiteSpace=wrap;rounded=0;" vertex="1" parent="1">
          <mxGeometry x="-510" y="630" width="140" height="65" as="geometry" />
        </mxCell>
        <mxCell id="A1hN3mON-9j6iePg1sMZ-79" style="edgeStyle=orthogonalEdgeStyle;rounded=0;orthogonalLoop=1;jettySize=auto;html=1;exitX=0.5;exitY=1;exitDx=0;exitDy=0;" edge="1" parent="1">
          <mxGeometry relative="1" as="geometry">
            <mxPoint x="100" y="1142.5" as="sourcePoint" />
            <mxPoint x="100" y="1142.5" as="targetPoint" />
          </mxGeometry>
        </mxCell>
        <mxCell id="A1hN3mON-9j6iePg1sMZ-83" value="PFSense Secondaire&lt;div&gt;WAN: 10.0.0.13&lt;/div&gt;&lt;div&gt;LAN: 188.165.103.3&lt;/div&gt;&lt;div&gt;SQ: 188.165.104.3&lt;/div&gt;&lt;div&gt;&lt;br&gt;&lt;/div&gt;&lt;div&gt;&lt;br&gt;&lt;/div&gt;" style="text;html=1;align=center;verticalAlign=middle;whiteSpace=wrap;rounded=0;" vertex="1" parent="1">
          <mxGeometry x="-420" y="890" width="140" height="65" as="geometry" />
        </mxCell>
        <mxCell id="A1hN3mON-9j6iePg1sMZ-243" style="edgeStyle=orthogonalEdgeStyle;rounded=0;orthogonalLoop=1;jettySize=auto;html=1;exitX=0;exitY=0.5;exitDx=0;exitDy=0;exitPerimeter=0;" edge="1" parent="1" source="A1hN3mON-9j6iePg1sMZ-84" target="A1hN3mON-9j6iePg1sMZ-241">
          <mxGeometry relative="1" as="geometry" />
        </mxCell>
        <mxCell id="A1hN3mON-9j6iePg1sMZ-84" value="" style="fontColor=#0066CC;verticalAlign=top;verticalLabelPosition=bottom;labelPosition=center;align=center;html=1;outlineConnect=0;fillColor=#CCCCCC;strokeColor=#6881B3;gradientColor=none;gradientDirection=north;strokeWidth=2;shape=mxgraph.networks.switch;" vertex="1" parent="1">
          <mxGeometry x="-635" y="760" width="80" height="25" as="geometry" />
        </mxCell>
        <mxCell id="A1hN3mON-9j6iePg1sMZ-89" value="" style="fontColor=#0066CC;verticalAlign=top;verticalLabelPosition=bottom;labelPosition=center;align=center;html=1;outlineConnect=0;fillColor=#CCCCCC;strokeColor=#6881B3;gradientColor=none;gradientDirection=north;strokeWidth=2;shape=mxgraph.networks.laptop;" vertex="1" parent="1">
          <mxGeometry x="-905" y="680" width="50" height="40" as="geometry" />
        </mxCell>
        <mxCell id="A1hN3mON-9j6iePg1sMZ-90" value="" style="fontColor=#0066CC;verticalAlign=top;verticalLabelPosition=bottom;labelPosition=center;align=center;html=1;outlineConnect=0;fillColor=#CCCCCC;strokeColor=#6881B3;gradientColor=none;gradientDirection=north;strokeWidth=2;shape=mxgraph.networks.laptop;" vertex="1" parent="1">
          <mxGeometry x="-905" y="745" width="50" height="40" as="geometry" />
        </mxCell>
        <mxCell id="A1hN3mON-9j6iePg1sMZ-92" value="" style="fontColor=#0066CC;verticalAlign=top;verticalLabelPosition=bottom;labelPosition=center;align=center;html=1;outlineConnect=0;fillColor=#CCCCCC;strokeColor=#6881B3;gradientColor=none;gradientDirection=north;strokeWidth=2;shape=mxgraph.networks.laptop;" vertex="1" parent="1">
          <mxGeometry x="-905" y="820" width="50" height="40" as="geometry" />
        </mxCell>
        <mxCell id="A1hN3mON-9j6iePg1sMZ-101" value="Le DHCP est donné par le PFSense&lt;div&gt;188.165.104.10 - 99&lt;/div&gt;" style="text;html=1;align=center;verticalAlign=middle;whiteSpace=wrap;rounded=0;" vertex="1" parent="1">
          <mxGeometry x="-680" y="840" width="165" height="70" as="geometry" />
        </mxCell>
        <mxCell id="A1hN3mON-9j6iePg1sMZ-117" value="" style="rounded=1;whiteSpace=wrap;html=1;" vertex="1" parent="1">
          <mxGeometry x="-690" y="1220" width="690" height="400" as="geometry" />
        </mxCell>
        <mxCell id="A1hN3mON-9j6iePg1sMZ-118" style="edgeStyle=orthogonalEdgeStyle;rounded=0;orthogonalLoop=1;jettySize=auto;html=1;exitX=0.5;exitY=1;exitDx=0;exitDy=0;exitPerimeter=0;" edge="1" parent="1" source="A1hN3mON-9j6iePg1sMZ-120" target="A1hN3mON-9j6iePg1sMZ-121">
          <mxGeometry relative="1" as="geometry" />
        </mxCell>
        <mxCell id="A1hN3mON-9j6iePg1sMZ-119" style="edgeStyle=orthogonalEdgeStyle;rounded=0;orthogonalLoop=1;jettySize=auto;html=1;exitX=0;exitY=0.5;exitDx=0;exitDy=0;exitPerimeter=0;" edge="1" parent="1" source="A1hN3mON-9j6iePg1sMZ-120" target="A1hN3mON-9j6iePg1sMZ-126">
          <mxGeometry relative="1" as="geometry" />
        </mxCell>
        <mxCell id="A1hN3mON-9j6iePg1sMZ-120" value="" style="fontColor=#0066CC;verticalAlign=top;verticalLabelPosition=bottom;labelPosition=center;align=center;html=1;outlineConnect=0;fillColor=#CCCCCC;strokeColor=#6881B3;gradientColor=none;gradientDirection=north;strokeWidth=2;shape=mxgraph.networks.firewall;" vertex="1" parent="1">
          <mxGeometry x="-100" y="1270" width="50" height="50" as="geometry" />
        </mxCell>
        <mxCell id="A1hN3mON-9j6iePg1sMZ-121" value="" style="fontColor=#0066CC;verticalAlign=top;verticalLabelPosition=bottom;labelPosition=center;align=center;html=1;outlineConnect=0;fillColor=#CCCCCC;strokeColor=#6881B3;gradientColor=none;gradientDirection=north;strokeWidth=2;shape=mxgraph.networks.firewall;" vertex="1" parent="1">
          <mxGeometry x="-100" y="1400" width="50" height="50" as="geometry" />
        </mxCell>
        <mxCell id="A1hN3mON-9j6iePg1sMZ-122" style="edgeStyle=orthogonalEdgeStyle;rounded=0;orthogonalLoop=1;jettySize=auto;html=1;exitX=0.5;exitY=1;exitDx=0;exitDy=0;exitPerimeter=0;" edge="1" parent="1">
          <mxGeometry relative="1" as="geometry">
            <mxPoint x="-600" y="1570" as="sourcePoint" />
            <mxPoint x="-600" y="1570" as="targetPoint" />
          </mxGeometry>
        </mxCell>
        <mxCell id="A1hN3mON-9j6iePg1sMZ-123" value="PFSense Principal&lt;div&gt;WAN: 10.0.0.14&lt;/div&gt;&lt;div&gt;LAN: 188.165.105.2&lt;/div&gt;&lt;div&gt;SM: 188.165.106.2&lt;/div&gt;&lt;div&gt;&lt;br&gt;&lt;/div&gt;&lt;div&gt;&lt;br&gt;&lt;/div&gt;" style="text;html=1;align=center;verticalAlign=middle;whiteSpace=wrap;rounded=0;" vertex="1" parent="1">
          <mxGeometry x="-240" y="1240" width="140" height="65" as="geometry" />
        </mxCell>
        <mxCell id="A1hN3mON-9j6iePg1sMZ-124" value="PFSense Secondaire&lt;div&gt;WAN: 10.0.0.40&lt;/div&gt;&lt;div&gt;LAN: 188.165.105.3&lt;/div&gt;&lt;div&gt;SM: 188.165.106.3&lt;/div&gt;&lt;div&gt;&lt;br&gt;&lt;/div&gt;&lt;div&gt;&lt;br&gt;&lt;/div&gt;" style="text;html=1;align=center;verticalAlign=middle;whiteSpace=wrap;rounded=0;" vertex="1" parent="1">
          <mxGeometry x="-160" y="1470" width="140" height="65" as="geometry" />
        </mxCell>
        <mxCell id="A1hN3mON-9j6iePg1sMZ-126" value="" style="fontColor=#0066CC;verticalAlign=top;verticalLabelPosition=bottom;labelPosition=center;align=center;html=1;outlineConnect=0;fillColor=#CCCCCC;strokeColor=#6881B3;gradientColor=none;gradientDirection=north;strokeWidth=2;shape=mxgraph.networks.switch;" vertex="1" parent="1">
          <mxGeometry x="-385" y="1370" width="80" height="25" as="geometry" />
        </mxCell>
        <mxCell id="A1hN3mON-9j6iePg1sMZ-127" value="" style="fontColor=#0066CC;verticalAlign=top;verticalLabelPosition=bottom;labelPosition=center;align=center;html=1;outlineConnect=0;fillColor=#CCCCCC;strokeColor=#6881B3;gradientColor=none;gradientDirection=north;strokeWidth=2;shape=mxgraph.networks.laptop;" vertex="1" parent="1">
          <mxGeometry x="-655" y="1290" width="50" height="40" as="geometry" />
        </mxCell>
        <mxCell id="A1hN3mON-9j6iePg1sMZ-128" value="" style="fontColor=#0066CC;verticalAlign=top;verticalLabelPosition=bottom;labelPosition=center;align=center;html=1;outlineConnect=0;fillColor=#CCCCCC;strokeColor=#6881B3;gradientColor=none;gradientDirection=north;strokeWidth=2;shape=mxgraph.networks.laptop;" vertex="1" parent="1">
          <mxGeometry x="-520" y="1290" width="50" height="40" as="geometry" />
        </mxCell>
        <mxCell id="A1hN3mON-9j6iePg1sMZ-132" value="Le DHCP est donné par le PFSense&lt;div&gt;188.165.106.10 - 99&lt;/div&gt;" style="text;html=1;align=center;verticalAlign=middle;whiteSpace=wrap;rounded=0;" vertex="1" parent="1">
          <mxGeometry x="-427.5" y="1460" width="165" height="70" as="geometry" />
        </mxCell>
        <mxCell id="A1hN3mON-9j6iePg1sMZ-133" value="&lt;font style=&quot;font-size: 48px;&quot;&gt;Site de Laon&lt;/font&gt;" style="text;html=1;align=center;verticalAlign=middle;whiteSpace=wrap;rounded=0;" vertex="1" parent="1">
          <mxGeometry x="-360" y="-270" width="460" height="30" as="geometry" />
        </mxCell>
        <mxCell id="A1hN3mON-9j6iePg1sMZ-134" value="&lt;font style=&quot;font-size: 48px;&quot;&gt;Site de Saint-Quentin&lt;/font&gt;&lt;span style=&quot;color: rgba(0, 0, 0, 0); font-family: monospace; font-size: 0px; text-align: start; text-wrap: nowrap;&quot;&gt;%3CmxGraphModel%3E%3Croot%3E%3CmxCell%20id%3D%220%22%2F%3E%3CmxCell%20id%3D%221%22%20parent%3D%220%22%2F%3E%3CmxCell%20id%3D%222%22%20value%3D%22%26lt%3Bfont%20style%3D%26quot%3Bfont-size%3A%2048px%3B%26quot%3B%26gt%3BSite%20de%20Laon%26lt%3B%2Ffont%26gt%3B%22%20style%3D%22text%3Bhtml%3D1%3Balign%3Dcenter%3BverticalAlign%3Dmiddle%3BwhiteSpace%3Dwrap%3Brounded%3D0%3B%22%20vertex%3D%221%22%20parent%3D%221%22%3E%3CmxGeometry%20x%3D%22-360%22%20y%3D%22-270%22%20width%3D%22460%22%20height%3D%2230%22%20as%3D%22geometry%22%2F%3E%3C%2FmxCell%3E%3C%2Froot%3E%3C%2FmxGraphModel%3E&lt;/span&gt;" style="text;html=1;align=center;verticalAlign=middle;whiteSpace=wrap;rounded=0;" vertex="1" parent="1">
          <mxGeometry x="-830" y="955" width="460" height="30" as="geometry" />
        </mxCell>
        <mxCell id="A1hN3mON-9j6iePg1sMZ-135" value="&lt;span style=&quot;font-size: 48px;&quot;&gt;Entrepot de Saint-Martin&lt;/span&gt;" style="text;html=1;align=center;verticalAlign=middle;whiteSpace=wrap;rounded=0;" vertex="1" parent="1">
          <mxGeometry x="-625" y="1565" width="545" height="30" as="geometry" />
        </mxCell>
        <mxCell id="A1hN3mON-9j6iePg1sMZ-136" value="" style="rounded=1;whiteSpace=wrap;html=1;" vertex="1" parent="1">
          <mxGeometry x="1490" y="850" width="690" height="400" as="geometry" />
        </mxCell>
        <mxCell id="A1hN3mON-9j6iePg1sMZ-137" style="edgeStyle=orthogonalEdgeStyle;rounded=0;orthogonalLoop=1;jettySize=auto;html=1;exitX=0.5;exitY=1;exitDx=0;exitDy=0;exitPerimeter=0;" edge="1" parent="1" source="A1hN3mON-9j6iePg1sMZ-139" target="A1hN3mON-9j6iePg1sMZ-140">
          <mxGeometry relative="1" as="geometry" />
        </mxCell>
        <mxCell id="A1hN3mON-9j6iePg1sMZ-154" style="edgeStyle=orthogonalEdgeStyle;rounded=0;orthogonalLoop=1;jettySize=auto;html=1;exitX=1;exitY=0.5;exitDx=0;exitDy=0;exitPerimeter=0;" edge="1" parent="1" source="A1hN3mON-9j6iePg1sMZ-139" target="A1hN3mON-9j6iePg1sMZ-145">
          <mxGeometry relative="1" as="geometry" />
        </mxCell>
        <mxCell id="A1hN3mON-9j6iePg1sMZ-139" value="" style="fontColor=#0066CC;verticalAlign=top;verticalLabelPosition=bottom;labelPosition=center;align=center;html=1;outlineConnect=0;fillColor=#CCCCCC;strokeColor=#6881B3;gradientColor=none;gradientDirection=north;strokeWidth=2;shape=mxgraph.networks.firewall;" vertex="1" parent="1">
          <mxGeometry x="1545" y="920" width="50" height="50" as="geometry" />
        </mxCell>
        <mxCell id="A1hN3mON-9j6iePg1sMZ-140" value="" style="fontColor=#0066CC;verticalAlign=top;verticalLabelPosition=bottom;labelPosition=center;align=center;html=1;outlineConnect=0;fillColor=#CCCCCC;strokeColor=#6881B3;gradientColor=none;gradientDirection=north;strokeWidth=2;shape=mxgraph.networks.firewall;" vertex="1" parent="1">
          <mxGeometry x="1545" y="1050" width="50" height="50" as="geometry" />
        </mxCell>
        <mxCell id="A1hN3mON-9j6iePg1sMZ-141" style="edgeStyle=orthogonalEdgeStyle;rounded=0;orthogonalLoop=1;jettySize=auto;html=1;exitX=0.5;exitY=1;exitDx=0;exitDy=0;exitPerimeter=0;" edge="1" parent="1">
          <mxGeometry relative="1" as="geometry">
            <mxPoint x="1585" y="1200" as="sourcePoint" />
            <mxPoint x="1585" y="1200" as="targetPoint" />
          </mxGeometry>
        </mxCell>
        <mxCell id="A1hN3mON-9j6iePg1sMZ-142" value="PFSense Principal&lt;div&gt;WAN: 10.0.0.15&lt;/div&gt;&lt;div&gt;LAN: 188.165.107.2&lt;/div&gt;&lt;div&gt;VC: 188.165.108.2&lt;/div&gt;&lt;div&gt;&lt;br&gt;&lt;/div&gt;&lt;div&gt;&lt;br&gt;&lt;/div&gt;" style="text;html=1;align=center;verticalAlign=middle;whiteSpace=wrap;rounded=0;" vertex="1" parent="1">
          <mxGeometry x="1605" y="872.5" width="140" height="65" as="geometry" />
        </mxCell>
        <mxCell id="A1hN3mON-9j6iePg1sMZ-143" value="PFSense Secondaire&lt;div&gt;WAN: 10.0.0.16&lt;/div&gt;&lt;div&gt;LAN: 188.165.107.3&lt;/div&gt;&lt;div&gt;VC: 188.165.108.3&lt;/div&gt;&lt;div&gt;&lt;br&gt;&lt;/div&gt;&lt;div&gt;&lt;br&gt;&lt;/div&gt;" style="text;html=1;align=center;verticalAlign=middle;whiteSpace=wrap;rounded=0;" vertex="1" parent="1">
          <mxGeometry x="1500" y="1130" width="140" height="65" as="geometry" />
        </mxCell>
        <mxCell id="A1hN3mON-9j6iePg1sMZ-145" value="" style="fontColor=#0066CC;verticalAlign=top;verticalLabelPosition=bottom;labelPosition=center;align=center;html=1;outlineConnect=0;fillColor=#CCCCCC;strokeColor=#6881B3;gradientColor=none;gradientDirection=north;strokeWidth=2;shape=mxgraph.networks.switch;" vertex="1" parent="1">
          <mxGeometry x="1795" y="932.5" width="80" height="25" as="geometry" />
        </mxCell>
        <mxCell id="A1hN3mON-9j6iePg1sMZ-151" value="Le DHCP est donné par le PFSense&lt;div&gt;188.165.108.10 - 99&lt;/div&gt;" style="text;html=1;align=center;verticalAlign=middle;whiteSpace=wrap;rounded=0;" vertex="1" parent="1">
          <mxGeometry x="1755" y="1100" width="165" height="70" as="geometry" />
        </mxCell>
        <mxCell id="A1hN3mON-9j6iePg1sMZ-152" value="&lt;font style=&quot;font-size: 48px;&quot;&gt;Site de Villiers Cotteret&lt;/font&gt;&lt;span style=&quot;color: rgba(0, 0, 0, 0); font-family: monospace; font-size: 0px; text-align: start; text-wrap: nowrap;&quot;&gt;%3CmxGraphModel%3E%3Croot%3E%3CmxCell%20id%3D%220%22%2F%3E%3CmxCell%20id%3D%221%22%20parent%3D%220%22%2F%3E%3CmxCell%20id%3D%222%22%20value%3D%22%26lt%3Bfont%20style%3D%26quot%3Bfont-size%3A%2048px%3B%26quot%3B%26gt%3BSite%20de%20Laon%26lt%3B%2Ffont%26gt%3B%22%20style%3D%22text%3Bhtml%3D1%3Balign%3Dcenter%3BverticalAlign%3Dmiddle%3BwhiteSpace%3Dwrap%3Brounded%3D0%3B%22%20vertex%3D%221%22%20parent%3D%221%22%3E%3CmxGeometry%20x%3D%22-360%22%20y%3D%22-270%22%20width%3D%22460%22%20height%3D%2230%22%20as%3D%22geometry%22%2F%3E%3C%2FmxCell%3E%3C%2Froot%3E%3C%2FmxGraphModel%3E&lt;/span&gt;" style="text;html=1;align=center;verticalAlign=middle;whiteSpace=wrap;rounded=0;" vertex="1" parent="1">
          <mxGeometry x="1605" y="1195" width="510" height="30" as="geometry" />
        </mxCell>
        <mxCell id="A1hN3mON-9j6iePg1sMZ-156" value="" style="fontColor=#0066CC;verticalAlign=top;verticalLabelPosition=bottom;labelPosition=center;align=center;html=1;outlineConnect=0;fillColor=#CCCCCC;strokeColor=#6881B3;gradientColor=none;gradientDirection=north;strokeWidth=2;shape=mxgraph.networks.laptop;" vertex="1" parent="1">
          <mxGeometry x="2025" y="925" width="50" height="40" as="geometry" />
        </mxCell>
        <mxCell id="A1hN3mON-9j6iePg1sMZ-158" value="" style="rounded=1;whiteSpace=wrap;html=1;" vertex="1" parent="1">
          <mxGeometry x="1170" y="-430" width="920" height="520" as="geometry" />
        </mxCell>
        <mxCell id="A1hN3mON-9j6iePg1sMZ-161" value="" style="fontColor=#0066CC;verticalAlign=top;verticalLabelPosition=bottom;labelPosition=center;align=center;html=1;outlineConnect=0;fillColor=#CCCCCC;strokeColor=#6881B3;gradientColor=none;gradientDirection=north;strokeWidth=2;shape=mxgraph.networks.firewall;" vertex="1" parent="1">
          <mxGeometry x="1475" y="-20" width="50" height="50" as="geometry" />
        </mxCell>
        <mxCell id="A1hN3mON-9j6iePg1sMZ-174" style="edgeStyle=orthogonalEdgeStyle;rounded=0;orthogonalLoop=1;jettySize=auto;html=1;exitX=1;exitY=0.5;exitDx=0;exitDy=0;exitPerimeter=0;" edge="1" parent="1" source="A1hN3mON-9j6iePg1sMZ-162" target="A1hN3mON-9j6iePg1sMZ-161">
          <mxGeometry relative="1" as="geometry" />
        </mxCell>
        <mxCell id="A1hN3mON-9j6iePg1sMZ-162" value="" style="fontColor=#0066CC;verticalAlign=top;verticalLabelPosition=bottom;labelPosition=center;align=center;html=1;outlineConnect=0;fillColor=#CCCCCC;strokeColor=#6881B3;gradientColor=none;gradientDirection=north;strokeWidth=2;shape=mxgraph.networks.firewall;" vertex="1" parent="1">
          <mxGeometry x="1225" y="-20" width="50" height="50" as="geometry" />
        </mxCell>
        <mxCell id="A1hN3mON-9j6iePg1sMZ-163" style="edgeStyle=orthogonalEdgeStyle;rounded=0;orthogonalLoop=1;jettySize=auto;html=1;exitX=0.5;exitY=1;exitDx=0;exitDy=0;exitPerimeter=0;" edge="1" parent="1">
          <mxGeometry relative="1" as="geometry">
            <mxPoint x="1265" y="40" as="sourcePoint" />
            <mxPoint x="1265" y="40" as="targetPoint" />
          </mxGeometry>
        </mxCell>
        <mxCell id="A1hN3mON-9j6iePg1sMZ-164" value="PFSense Principal&lt;div&gt;WAN: 10.0.0.17&lt;/div&gt;&lt;div&gt;LAN: 188.165.109.2&lt;/div&gt;&lt;div&gt;SOISSON: 188.165.110.2&lt;/div&gt;&lt;div&gt;&lt;br&gt;&lt;/div&gt;&lt;div&gt;&lt;br&gt;&lt;/div&gt;" style="text;html=1;align=center;verticalAlign=middle;whiteSpace=wrap;rounded=0;" vertex="1" parent="1">
          <mxGeometry x="1260" y="-77.5" width="140" height="65" as="geometry" />
        </mxCell>
        <mxCell id="A1hN3mON-9j6iePg1sMZ-165" value="PFSense Secondaire&lt;div&gt;WAN: 10.0.0.18&lt;/div&gt;&lt;div&gt;LAN: 188.165.109.3&lt;/div&gt;&lt;div&gt;SOISSON: 188.165.110.3&lt;/div&gt;&lt;div&gt;&lt;br&gt;&lt;/div&gt;&lt;div&gt;&lt;br&gt;&lt;/div&gt;" style="text;html=1;align=center;verticalAlign=middle;whiteSpace=wrap;rounded=0;" vertex="1" parent="1">
          <mxGeometry x="1475" y="-85" width="140" height="65" as="geometry" />
        </mxCell>
        <mxCell id="A1hN3mON-9j6iePg1sMZ-167" value="" style="fontColor=#0066CC;verticalAlign=top;verticalLabelPosition=bottom;labelPosition=center;align=center;html=1;outlineConnect=0;fillColor=#CCCCCC;strokeColor=#6881B3;gradientColor=none;gradientDirection=north;strokeWidth=2;shape=mxgraph.networks.switch;" vertex="1" parent="1">
          <mxGeometry x="1475" y="-227.5" width="80" height="25" as="geometry" />
        </mxCell>
        <mxCell id="A1hN3mON-9j6iePg1sMZ-168" value="Le DHCP est donné par le PFSense&lt;div&gt;188.165.110.10 - 99&lt;/div&gt;" style="text;html=1;align=center;verticalAlign=middle;whiteSpace=wrap;rounded=0;" vertex="1" parent="1">
          <mxGeometry x="1830" y="-120" width="165" height="70" as="geometry" />
        </mxCell>
        <mxCell id="A1hN3mON-9j6iePg1sMZ-169" value="&lt;font style=&quot;font-size: 48px;&quot;&gt;Site de Soisson&lt;/font&gt;&lt;span style=&quot;color: rgba(0, 0, 0, 0); font-family: monospace; font-size: 0px; text-align: start; text-wrap: nowrap;&quot;&gt;%3CmxGraphModel%3E%3Croot%3E%3CmxCell%20id%3D%220%22%2F%3E%3CmxCell%20id%3D%221%22%20parent%3D%220%22%2F%3E%3CmxCell%20id%3D%222%22%20value%3D%22%26lt%3Bfont%20style%3D%26quot%3Bfont-size%3A%2048px%3B%26quot%3B%26gt%3BSite%20de%20Laon%26lt%3B%2Ffont%26gt%3B%22%20style%3D%22text%3Bhtml%3D1%3Balign%3Dcenter%3BverticalAlign%3Dmiddle%3BwhiteSpace%3Dwrap%3Brounded%3D0%3B%22%20vertex%3D%221%22%20parent%3D%221%22%3E%3CmxGeometry%20x%3D%22-360%22%20y%3D%22-270%22%20width%3D%22460%22%20height%3D%2230%22%20as%3D%22geometry%22%2F%3E%3C%2FmxCell%3E%3C%2Froot%3E%3C%2FmxGraphModel%3E&lt;/span&gt;" style="text;html=1;align=center;verticalAlign=middle;whiteSpace=wrap;rounded=0;" vertex="1" parent="1">
          <mxGeometry x="1370" y="-390" width="510" height="30" as="geometry" />
        </mxCell>
        <mxCell id="A1hN3mON-9j6iePg1sMZ-173" value="Le DHCP est donné par le OpnSense&lt;div&gt;188.165.102.10 - 99&lt;/div&gt;" style="text;html=1;align=center;verticalAlign=middle;whiteSpace=wrap;rounded=0;" vertex="1" parent="1">
          <mxGeometry x="-185" y="-60" width="165" height="70" as="geometry" />
        </mxCell>
        <mxCell id="A1hN3mON-9j6iePg1sMZ-175" style="edgeStyle=orthogonalEdgeStyle;rounded=0;orthogonalLoop=1;jettySize=auto;html=1;exitX=0.5;exitY=0;exitDx=0;exitDy=0;exitPerimeter=0;entryX=0;entryY=0.5;entryDx=0;entryDy=0;entryPerimeter=0;" edge="1" parent="1" source="A1hN3mON-9j6iePg1sMZ-162" target="A1hN3mON-9j6iePg1sMZ-167">
          <mxGeometry relative="1" as="geometry" />
        </mxCell>
        <mxCell id="A1hN3mON-9j6iePg1sMZ-176" value="" style="fontColor=#0066CC;verticalAlign=top;verticalLabelPosition=bottom;labelPosition=center;align=center;html=1;outlineConnect=0;fillColor=#CCCCCC;strokeColor=#6881B3;gradientColor=none;gradientDirection=north;strokeWidth=2;shape=mxgraph.networks.virtual_server;" vertex="1" parent="1">
          <mxGeometry x="1640" y="-330" width="60" height="60" as="geometry" />
        </mxCell>
        <mxCell id="A1hN3mON-9j6iePg1sMZ-177" value="&lt;div&gt;WindowServer 2022 Soisson&lt;/div&gt;&lt;div&gt;188.165.110.200&lt;/div&gt;" style="text;html=1;align=center;verticalAlign=middle;whiteSpace=wrap;rounded=0;" vertex="1" parent="1">
          <mxGeometry x="1710" y="-310" width="160" height="30" as="geometry" />
        </mxCell>
        <mxCell id="A1hN3mON-9j6iePg1sMZ-178" style="edgeStyle=orthogonalEdgeStyle;rounded=0;orthogonalLoop=1;jettySize=auto;html=1;exitX=1;exitY=0.5;exitDx=0;exitDy=0;exitPerimeter=0;entryX=0.5;entryY=1;entryDx=0;entryDy=0;entryPerimeter=0;" edge="1" parent="1" source="A1hN3mON-9j6iePg1sMZ-167" target="A1hN3mON-9j6iePg1sMZ-176">
          <mxGeometry relative="1" as="geometry" />
        </mxCell>
        <mxCell id="A1hN3mON-9j6iePg1sMZ-180" value="" style="fontColor=#0066CC;verticalAlign=top;verticalLabelPosition=bottom;labelPosition=center;align=center;html=1;outlineConnect=0;fillColor=#CCCCCC;strokeColor=#6881B3;gradientColor=none;gradientDirection=north;strokeWidth=2;shape=mxgraph.networks.laptop;" vertex="1" parent="1">
          <mxGeometry x="1910" y="-235" width="50" height="40" as="geometry" />
        </mxCell>
        <mxCell id="A1hN3mON-9j6iePg1sMZ-182" value="CARP&lt;div&gt;WAN: 10.0.0.254&lt;/div&gt;&lt;div&gt;LAN:188.165.100.254&lt;/div&gt;" style="text;html=1;align=center;verticalAlign=middle;whiteSpace=wrap;rounded=0;" vertex="1" parent="1">
          <mxGeometry x="50" y="50" width="120" height="30" as="geometry" />
        </mxCell>
        <mxCell id="A1hN3mON-9j6iePg1sMZ-183" value="CARP&lt;div&gt;WAN: 10.0.0.250&lt;/div&gt;&lt;div&gt;LAN:188.165.109.250&lt;/div&gt;" style="text;html=1;align=center;verticalAlign=middle;whiteSpace=wrap;rounded=0;" vertex="1" parent="1">
          <mxGeometry x="1320" y="40" width="120" height="30" as="geometry" />
        </mxCell>
        <mxCell id="A1hN3mON-9j6iePg1sMZ-184" value="CARP&lt;div&gt;WAN: 10.0.0.253&lt;/div&gt;&lt;div&gt;LAN:188.165.103.253&lt;/div&gt;" style="text;html=1;align=center;verticalAlign=middle;whiteSpace=wrap;rounded=0;" vertex="1" parent="1">
          <mxGeometry x="-490" y="750" width="120" height="30" as="geometry" />
        </mxCell>
        <mxCell id="A1hN3mON-9j6iePg1sMZ-185" value="CARP&lt;div&gt;WAN: 10.0.0.252&lt;/div&gt;&lt;div&gt;LAN:188.165.105.252&lt;/div&gt;" style="text;html=1;align=center;verticalAlign=middle;whiteSpace=wrap;rounded=0;" vertex="1" parent="1">
          <mxGeometry x="-200" y="1340" width="120" height="30" as="geometry" />
        </mxCell>
        <mxCell id="A1hN3mON-9j6iePg1sMZ-186" value="CARP&lt;div&gt;WAN: 10.0.0.251&lt;/div&gt;&lt;div&gt;LAN:188.165.107.251&lt;/div&gt;" style="text;html=1;align=center;verticalAlign=middle;whiteSpace=wrap;rounded=0;" vertex="1" parent="1">
          <mxGeometry x="1590" y="990" width="120" height="30" as="geometry" />
        </mxCell>
        <mxCell id="A1hN3mON-9j6iePg1sMZ-187" value="" style="shape=flexArrow;endArrow=classic;html=1;rounded=0;exitX=1;exitY=0.5;exitDx=0;exitDy=0;entryX=0;entryY=0.5;entryDx=0;entryDy=0;" edge="1" parent="1" target="A1hN3mON-9j6iePg1sMZ-158">
          <mxGeometry width="50" height="50" relative="1" as="geometry">
            <mxPoint x="350" y="-20.24" as="sourcePoint" />
            <mxPoint x="1070" y="-20.24" as="targetPoint" />
            <Array as="points">
              <mxPoint x="720" y="320" />
            </Array>
          </mxGeometry>
        </mxCell>
        <mxCell id="A1hN3mON-9j6iePg1sMZ-189" value="&lt;font style=&quot;font-size: 36px;&quot;&gt;OpenVPN&lt;/font&gt;&lt;div&gt;&lt;font style=&quot;font-size: 36px;&quot;&gt;10.0.9.0/24&lt;/font&gt;&lt;/div&gt;" style="text;html=1;align=center;verticalAlign=middle;whiteSpace=wrap;rounded=0;" vertex="1" parent="1">
          <mxGeometry x="600" y="150" width="240" height="30" as="geometry" />
        </mxCell>
        <mxCell id="A1hN3mON-9j6iePg1sMZ-190" value="" style="shape=flexArrow;endArrow=classic;html=1;rounded=0;exitX=0.5;exitY=1;exitDx=0;exitDy=0;entryX=0.5;entryY=0;entryDx=0;entryDy=0;" edge="1" parent="1" source="A1hN3mON-9j6iePg1sMZ-158" target="A1hN3mON-9j6iePg1sMZ-136">
          <mxGeometry width="50" height="50" relative="1" as="geometry">
            <mxPoint x="1090" y="450" as="sourcePoint" />
            <mxPoint x="1810" y="450" as="targetPoint" />
            <Array as="points">
              <mxPoint x="930" y="540" />
            </Array>
          </mxGeometry>
        </mxCell>
        <mxCell id="A1hN3mON-9j6iePg1sMZ-193" value="" style="shape=flexArrow;endArrow=classic;html=1;rounded=0;exitX=0.5;exitY=1;exitDx=0;exitDy=0;entryX=0.5;entryY=0;entryDx=0;entryDy=0;" edge="1" parent="1" source="A1hN3mON-9j6iePg1sMZ-6" target="A1hN3mON-9j6iePg1sMZ-56">
          <mxGeometry width="50" height="50" relative="1" as="geometry">
            <mxPoint x="340" y="799.64" as="sourcePoint" />
            <mxPoint x="1060" y="799.64" as="targetPoint" />
            <Array as="points">
              <mxPoint x="390" y="490" />
            </Array>
          </mxGeometry>
        </mxCell>
        <mxCell id="A1hN3mON-9j6iePg1sMZ-195" value="" style="shape=flexArrow;endArrow=classic;html=1;rounded=0;exitX=1;exitY=0.5;exitDx=0;exitDy=0;entryX=0.5;entryY=0;entryDx=0;entryDy=0;" edge="1" parent="1" source="A1hN3mON-9j6iePg1sMZ-56" target="A1hN3mON-9j6iePg1sMZ-117">
          <mxGeometry width="50" height="50" relative="1" as="geometry">
            <mxPoint x="505" y="850" as="sourcePoint" />
            <mxPoint x="500" y="1190" as="targetPoint" />
            <Array as="points">
              <mxPoint x="440" y="620" />
            </Array>
          </mxGeometry>
        </mxCell>
        <mxCell id="A1hN3mON-9j6iePg1sMZ-203" value="" style="rounded=1;whiteSpace=wrap;html=1;" vertex="1" parent="1">
          <mxGeometry x="470" y="962.5" width="690" height="400" as="geometry" />
        </mxCell>
        <mxCell id="A1hN3mON-9j6iePg1sMZ-206" value="" style="fontColor=#0066CC;verticalAlign=top;verticalLabelPosition=bottom;labelPosition=center;align=center;html=1;outlineConnect=0;fillColor=#CCCCCC;strokeColor=#6881B3;gradientColor=none;gradientDirection=north;strokeWidth=2;shape=mxgraph.networks.firewall;" vertex="1" parent="1">
          <mxGeometry x="850" y="990" width="50" height="50" as="geometry" />
        </mxCell>
        <mxCell id="A1hN3mON-9j6iePg1sMZ-207" value="" style="fontColor=#0066CC;verticalAlign=top;verticalLabelPosition=bottom;labelPosition=center;align=center;html=1;outlineConnect=0;fillColor=#CCCCCC;strokeColor=#6881B3;gradientColor=none;gradientDirection=north;strokeWidth=2;shape=mxgraph.networks.firewall;" vertex="1" parent="1">
          <mxGeometry x="530" y="990" width="50" height="50" as="geometry" />
        </mxCell>
        <mxCell id="A1hN3mON-9j6iePg1sMZ-208" style="edgeStyle=orthogonalEdgeStyle;rounded=0;orthogonalLoop=1;jettySize=auto;html=1;exitX=0.5;exitY=1;exitDx=0;exitDy=0;exitPerimeter=0;" edge="1" parent="1">
          <mxGeometry relative="1" as="geometry">
            <mxPoint x="565" y="1312.5" as="sourcePoint" />
            <mxPoint x="565" y="1312.5" as="targetPoint" />
          </mxGeometry>
        </mxCell>
        <mxCell id="A1hN3mON-9j6iePg1sMZ-209" value="PFSense Principal&lt;div&gt;WAN: 10.0.0.19&lt;/div&gt;&lt;div&gt;LAN: 188.165.111.2&lt;/div&gt;&lt;div&gt;DC: 188.165.112.2&lt;/div&gt;&lt;div&gt;&lt;br&gt;&lt;/div&gt;&lt;div&gt;&lt;br&gt;&lt;/div&gt;" style="text;html=1;align=center;verticalAlign=middle;whiteSpace=wrap;rounded=0;" vertex="1" parent="1">
          <mxGeometry x="930" y="1000" width="140" height="65" as="geometry" />
        </mxCell>
        <mxCell id="A1hN3mON-9j6iePg1sMZ-210" value="PFSense Secondaire&lt;div&gt;WAN: 10.0.0.20&lt;/div&gt;&lt;div&gt;LAN: 188.165.111.3&lt;/div&gt;&lt;div&gt;DC: 188.165.112.3&lt;/div&gt;&lt;div&gt;&lt;br&gt;&lt;/div&gt;&lt;div&gt;&lt;br&gt;&lt;/div&gt;" style="text;html=1;align=center;verticalAlign=middle;whiteSpace=wrap;rounded=0;" vertex="1" parent="1">
          <mxGeometry x="480" y="1090" width="140" height="65" as="geometry" />
        </mxCell>
        <mxCell id="A1hN3mON-9j6iePg1sMZ-214" value="&lt;span style=&quot;font-size: 48px;&quot;&gt;Datacenter&lt;/span&gt;" style="text;html=1;align=center;verticalAlign=middle;whiteSpace=wrap;rounded=0;" vertex="1" parent="1">
          <mxGeometry x="585" y="1307.5" width="510" height="30" as="geometry" />
        </mxCell>
        <mxCell id="A1hN3mON-9j6iePg1sMZ-216" value="CARP&lt;div&gt;WAN: 10.0.0.249&lt;/div&gt;&lt;div&gt;LAN:188.165.111.249&lt;/div&gt;" style="text;html=1;align=center;verticalAlign=middle;whiteSpace=wrap;rounded=0;" vertex="1" parent="1">
          <mxGeometry x="660" y="1035" width="120" height="30" as="geometry" />
        </mxCell>
        <mxCell id="A1hN3mON-9j6iePg1sMZ-218" style="edgeStyle=orthogonalEdgeStyle;rounded=0;orthogonalLoop=1;jettySize=auto;html=1;exitX=0;exitY=0.5;exitDx=0;exitDy=0;exitPerimeter=0;entryX=1;entryY=0.5;entryDx=0;entryDy=0;entryPerimeter=0;" edge="1" parent="1" source="A1hN3mON-9j6iePg1sMZ-206" target="A1hN3mON-9j6iePg1sMZ-207">
          <mxGeometry relative="1" as="geometry" />
        </mxCell>
        <mxCell id="A1hN3mON-9j6iePg1sMZ-219" value="" style="fontColor=#0066CC;verticalAlign=top;verticalLabelPosition=bottom;labelPosition=center;align=center;html=1;outlineConnect=0;fillColor=#CCCCCC;strokeColor=#6881B3;gradientColor=none;gradientDirection=north;strokeWidth=2;shape=mxgraph.networks.storage;" vertex="1" parent="1">
          <mxGeometry x="825" y="1125" width="100" height="100" as="geometry" />
        </mxCell>
        <mxCell id="A1hN3mON-9j6iePg1sMZ-220" value="Datacenter&lt;div&gt;188.165.112.50&lt;/div&gt;" style="text;html=1;align=center;verticalAlign=middle;whiteSpace=wrap;rounded=0;" vertex="1" parent="1">
          <mxGeometry x="970" y="1170" width="60" height="30" as="geometry" />
        </mxCell>
        <mxCell id="A1hN3mON-9j6iePg1sMZ-221" style="edgeStyle=orthogonalEdgeStyle;rounded=0;orthogonalLoop=1;jettySize=auto;html=1;exitX=0.5;exitY=1;exitDx=0;exitDy=0;exitPerimeter=0;entryX=0.5;entryY=0;entryDx=0;entryDy=0;entryPerimeter=0;" edge="1" parent="1" source="A1hN3mON-9j6iePg1sMZ-206" target="A1hN3mON-9j6iePg1sMZ-219">
          <mxGeometry relative="1" as="geometry" />
        </mxCell>
        <mxCell id="A1hN3mON-9j6iePg1sMZ-222" value="" style="shape=flexArrow;endArrow=classic;html=1;rounded=0;exitX=0.984;exitY=0.965;exitDx=0;exitDy=0;entryX=0.5;entryY=0;entryDx=0;entryDy=0;exitPerimeter=0;" edge="1" parent="1" source="A1hN3mON-9j6iePg1sMZ-6" target="A1hN3mON-9j6iePg1sMZ-203">
          <mxGeometry width="50" height="50" relative="1" as="geometry">
            <mxPoint x="450" y="669.76" as="sourcePoint" />
            <mxPoint x="1270" y="520" as="targetPoint" />
            <Array as="points">
              <mxPoint x="640" y="690" />
            </Array>
          </mxGeometry>
        </mxCell>
        <mxCell id="A1hN3mON-9j6iePg1sMZ-223" value="&lt;font style=&quot;font-size: 36px;&quot;&gt;OpenVPN&lt;/font&gt;&lt;div&gt;&lt;font style=&quot;font-size: 36px;&quot;&gt;10.0.11.0/24&lt;/font&gt;&lt;/div&gt;" style="text;html=1;align=center;verticalAlign=middle;whiteSpace=wrap;rounded=0;" vertex="1" parent="1">
          <mxGeometry x="1060" y="510" width="240" height="30" as="geometry" />
        </mxCell>
        <mxCell id="A1hN3mON-9j6iePg1sMZ-226" value="&lt;font style=&quot;font-size: 36px;&quot;&gt;OpenVPN&lt;/font&gt;&lt;div&gt;&lt;font style=&quot;font-size: 36px;&quot;&gt;10.0.8.0/24&lt;/font&gt;&lt;/div&gt;" style="text;html=1;align=center;verticalAlign=middle;whiteSpace=wrap;rounded=0;" vertex="1" parent="1">
          <mxGeometry x="-30" y="440" width="240" height="30" as="geometry" />
        </mxCell>
        <mxCell id="A1hN3mON-9j6iePg1sMZ-227" value="&lt;font style=&quot;font-size: 36px;&quot;&gt;OpenVPN&lt;/font&gt;&lt;div&gt;&lt;font style=&quot;font-size: 36px;&quot;&gt;10.0.10.0/24&lt;/font&gt;&lt;/div&gt;" style="text;html=1;align=center;verticalAlign=middle;whiteSpace=wrap;rounded=0;" vertex="1" parent="1">
          <mxGeometry x="-50" y="810" width="240" height="30" as="geometry" />
        </mxCell>
        <mxCell id="A1hN3mON-9j6iePg1sMZ-230" value="&lt;font style=&quot;font-size: 36px;&quot;&gt;OpenVPN&lt;/font&gt;&lt;div&gt;&lt;font style=&quot;font-size: 36px;&quot;&gt;10.0.12.0/24&lt;/font&gt;&lt;/div&gt;" style="text;html=1;align=center;verticalAlign=middle;whiteSpace=wrap;rounded=0;" vertex="1" parent="1">
          <mxGeometry x="810" y="810" width="240" height="30" as="geometry" />
        </mxCell>
        <mxCell id="A1hN3mON-9j6iePg1sMZ-231" value="" style="fontColor=#0066CC;verticalAlign=top;verticalLabelPosition=bottom;labelPosition=center;align=center;html=1;outlineConnect=0;fillColor=#CCCCCC;strokeColor=#6881B3;gradientColor=none;gradientDirection=north;strokeWidth=2;shape=mxgraph.networks.laptop;" vertex="1" parent="1">
          <mxGeometry x="-375" y="-242.5" width="50" height="40" as="geometry" />
        </mxCell>
        <mxCell id="A1hN3mON-9j6iePg1sMZ-233" value="" style="fontColor=#0066CC;verticalAlign=top;verticalLabelPosition=bottom;labelPosition=center;align=center;html=1;outlineConnect=0;fillColor=#CCCCCC;strokeColor=#6881B3;gradientColor=none;gradientDirection=north;strokeWidth=2;shape=mxgraph.networks.server_storage;" vertex="1" parent="1">
          <mxGeometry x="-500" y="10" width="65" height="60" as="geometry" />
        </mxCell>
        <mxCell id="A1hN3mON-9j6iePg1sMZ-236" style="edgeStyle=orthogonalEdgeStyle;rounded=0;orthogonalLoop=1;jettySize=auto;html=1;exitX=0;exitY=0.7;exitDx=0;exitDy=0;exitPerimeter=0;" edge="1" parent="1" source="A1hN3mON-9j6iePg1sMZ-234" target="A1hN3mON-9j6iePg1sMZ-231">
          <mxGeometry relative="1" as="geometry" />
        </mxCell>
        <mxCell id="A1hN3mON-9j6iePg1sMZ-234" value="" style="fontColor=#0066CC;verticalAlign=top;verticalLabelPosition=bottom;labelPosition=center;align=center;html=1;outlineConnect=0;fillColor=#CCCCCC;strokeColor=#6881B3;gradientColor=none;gradientDirection=north;strokeWidth=2;shape=mxgraph.networks.wireless_hub;" vertex="1" parent="1">
          <mxGeometry x="-180" y="-200" width="72" height="54.5" as="geometry" />
        </mxCell>
        <mxCell id="A1hN3mON-9j6iePg1sMZ-237" style="edgeStyle=orthogonalEdgeStyle;rounded=0;orthogonalLoop=1;jettySize=auto;html=1;exitX=1;exitY=0.7;exitDx=0;exitDy=0;exitPerimeter=0;entryX=0;entryY=0.5;entryDx=0;entryDy=0;entryPerimeter=0;" edge="1" parent="1" source="A1hN3mON-9j6iePg1sMZ-234" target="A1hN3mON-9j6iePg1sMZ-16">
          <mxGeometry relative="1" as="geometry" />
        </mxCell>
        <mxCell id="A1hN3mON-9j6iePg1sMZ-238" value="" style="fontColor=#0066CC;verticalAlign=top;verticalLabelPosition=bottom;labelPosition=center;align=center;html=1;outlineConnect=0;fillColor=#CCCCCC;strokeColor=#6881B3;gradientColor=none;gradientDirection=north;strokeWidth=2;shape=mxgraph.networks.laptop;" vertex="1" parent="1">
          <mxGeometry x="350" y="-520" width="50" height="40" as="geometry" />
        </mxCell>
        <mxCell id="A1hN3mON-9j6iePg1sMZ-239" style="edgeStyle=orthogonalEdgeStyle;rounded=0;orthogonalLoop=1;jettySize=auto;html=1;exitX=1;exitY=0.5;exitDx=0;exitDy=0;exitPerimeter=0;entryX=0.5;entryY=1;entryDx=0;entryDy=0;entryPerimeter=0;" edge="1" parent="1" source="A1hN3mON-9j6iePg1sMZ-16" target="A1hN3mON-9j6iePg1sMZ-238">
          <mxGeometry relative="1" as="geometry" />
        </mxCell>
        <mxCell id="A1hN3mON-9j6iePg1sMZ-250" style="edgeStyle=orthogonalEdgeStyle;rounded=0;orthogonalLoop=1;jettySize=auto;html=1;exitX=0.02;exitY=0.94;exitDx=0;exitDy=0;exitPerimeter=0;" edge="1" parent="1" source="A1hN3mON-9j6iePg1sMZ-241" target="A1hN3mON-9j6iePg1sMZ-90">
          <mxGeometry relative="1" as="geometry" />
        </mxCell>
        <mxCell id="A1hN3mON-9j6iePg1sMZ-241" value="" style="fontColor=#0066CC;verticalAlign=top;verticalLabelPosition=bottom;labelPosition=center;align=center;html=1;outlineConnect=0;fillColor=#CCCCCC;strokeColor=#6881B3;gradientColor=none;gradientDirection=north;strokeWidth=2;shape=mxgraph.networks.wireless_hub;" vertex="1" parent="1">
          <mxGeometry x="-790" y="730" width="72" height="54.5" as="geometry" />
        </mxCell>
        <mxCell id="A1hN3mON-9j6iePg1sMZ-249" style="edgeStyle=orthogonalEdgeStyle;rounded=0;orthogonalLoop=1;jettySize=auto;html=1;exitX=0.5;exitY=1;exitDx=0;exitDy=0;exitPerimeter=0;entryX=1;entryY=1;entryDx=0;entryDy=0;entryPerimeter=0;" edge="1" parent="1" source="A1hN3mON-9j6iePg1sMZ-241" target="A1hN3mON-9j6iePg1sMZ-92">
          <mxGeometry relative="1" as="geometry" />
        </mxCell>
        <mxCell id="A1hN3mON-9j6iePg1sMZ-251" style="edgeStyle=orthogonalEdgeStyle;rounded=0;orthogonalLoop=1;jettySize=auto;html=1;exitX=0;exitY=0.7;exitDx=0;exitDy=0;exitPerimeter=0;entryX=0.5;entryY=0;entryDx=0;entryDy=0;entryPerimeter=0;" edge="1" parent="1" source="A1hN3mON-9j6iePg1sMZ-241" target="A1hN3mON-9j6iePg1sMZ-89">
          <mxGeometry relative="1" as="geometry" />
        </mxCell>
        <mxCell id="A1hN3mON-9j6iePg1sMZ-256" style="edgeStyle=orthogonalEdgeStyle;rounded=0;orthogonalLoop=1;jettySize=auto;html=1;exitX=0.55;exitY=0;exitDx=0;exitDy=0;exitPerimeter=0;" edge="1" parent="1" source="A1hN3mON-9j6iePg1sMZ-252" target="A1hN3mON-9j6iePg1sMZ-127">
          <mxGeometry relative="1" as="geometry" />
        </mxCell>
        <mxCell id="A1hN3mON-9j6iePg1sMZ-252" value="" style="fontColor=#0066CC;verticalAlign=top;verticalLabelPosition=bottom;labelPosition=center;align=center;html=1;outlineConnect=0;fillColor=#CCCCCC;strokeColor=#6881B3;gradientColor=none;gradientDirection=north;strokeWidth=2;shape=mxgraph.networks.wireless_hub;" vertex="1" parent="1">
          <mxGeometry x="-605" y="1380" width="72" height="54.5" as="geometry" />
        </mxCell>
        <mxCell id="A1hN3mON-9j6iePg1sMZ-254" style="edgeStyle=orthogonalEdgeStyle;rounded=0;orthogonalLoop=1;jettySize=auto;html=1;exitX=0;exitY=0.5;exitDx=0;exitDy=0;exitPerimeter=0;entryX=0.5;entryY=1;entryDx=0;entryDy=0;entryPerimeter=0;" edge="1" parent="1" source="A1hN3mON-9j6iePg1sMZ-126" target="A1hN3mON-9j6iePg1sMZ-252">
          <mxGeometry relative="1" as="geometry" />
        </mxCell>
        <mxCell id="A1hN3mON-9j6iePg1sMZ-255" style="edgeStyle=orthogonalEdgeStyle;rounded=0;orthogonalLoop=1;jettySize=auto;html=1;exitX=0.82;exitY=0;exitDx=0;exitDy=0;exitPerimeter=0;entryX=0.5;entryY=1;entryDx=0;entryDy=0;entryPerimeter=0;" edge="1" parent="1" source="A1hN3mON-9j6iePg1sMZ-252" target="A1hN3mON-9j6iePg1sMZ-128">
          <mxGeometry relative="1" as="geometry" />
        </mxCell>
        <mxCell id="A1hN3mON-9j6iePg1sMZ-260" value="" style="fontColor=#0066CC;verticalAlign=top;verticalLabelPosition=bottom;labelPosition=center;align=center;html=1;outlineConnect=0;fillColor=#CCCCCC;strokeColor=#6881B3;gradientColor=none;gradientDirection=north;strokeWidth=2;shape=mxgraph.networks.wireless_hub;" vertex="1" parent="1">
          <mxGeometry x="1683" y="-174.5" width="72" height="54.5" as="geometry" />
        </mxCell>
        <mxCell id="A1hN3mON-9j6iePg1sMZ-261" style="edgeStyle=orthogonalEdgeStyle;rounded=0;orthogonalLoop=1;jettySize=auto;html=1;exitX=1;exitY=0.5;exitDx=0;exitDy=0;exitPerimeter=0;entryX=0.02;entryY=0.94;entryDx=0;entryDy=0;entryPerimeter=0;" edge="1" parent="1" source="A1hN3mON-9j6iePg1sMZ-167" target="A1hN3mON-9j6iePg1sMZ-260">
          <mxGeometry relative="1" as="geometry" />
        </mxCell>
        <mxCell id="A1hN3mON-9j6iePg1sMZ-262" style="edgeStyle=orthogonalEdgeStyle;rounded=0;orthogonalLoop=1;jettySize=auto;html=1;exitX=0.82;exitY=0;exitDx=0;exitDy=0;exitPerimeter=0;entryX=0.5;entryY=1;entryDx=0;entryDy=0;entryPerimeter=0;" edge="1" parent="1" source="A1hN3mON-9j6iePg1sMZ-260" target="A1hN3mON-9j6iePg1sMZ-180">
          <mxGeometry relative="1" as="geometry" />
        </mxCell>
        <mxCell id="A1hN3mON-9j6iePg1sMZ-263" value="" style="fontColor=#0066CC;verticalAlign=top;verticalLabelPosition=bottom;labelPosition=center;align=center;html=1;outlineConnect=0;fillColor=#CCCCCC;strokeColor=#6881B3;gradientColor=none;gradientDirection=north;strokeWidth=2;shape=mxgraph.networks.wireless_hub;" vertex="1" parent="1">
          <mxGeometry x="1923" y="1005.25" width="72" height="54.5" as="geometry" />
        </mxCell>
        <mxCell id="A1hN3mON-9j6iePg1sMZ-264" style="edgeStyle=orthogonalEdgeStyle;rounded=0;orthogonalLoop=1;jettySize=auto;html=1;exitX=0.5;exitY=1;exitDx=0;exitDy=0;exitPerimeter=0;entryX=0.02;entryY=0.94;entryDx=0;entryDy=0;entryPerimeter=0;" edge="1" parent="1" source="A1hN3mON-9j6iePg1sMZ-145" target="A1hN3mON-9j6iePg1sMZ-263">
          <mxGeometry relative="1" as="geometry" />
        </mxCell>
        <mxCell id="A1hN3mON-9j6iePg1sMZ-265" style="edgeStyle=orthogonalEdgeStyle;rounded=0;orthogonalLoop=1;jettySize=auto;html=1;exitX=0.82;exitY=0;exitDx=0;exitDy=0;exitPerimeter=0;entryX=0.5;entryY=1;entryDx=0;entryDy=0;entryPerimeter=0;" edge="1" parent="1" source="A1hN3mON-9j6iePg1sMZ-263" target="A1hN3mON-9j6iePg1sMZ-156">
          <mxGeometry relative="1" as="geometry" />
        </mxCell>
        <mxCell id="A1hN3mON-9j6iePg1sMZ-276" value="&lt;span style=&quot;font-size: 48px;&quot;&gt;Entrepots de Laon&lt;/span&gt;" style="text;html=1;align=center;verticalAlign=middle;whiteSpace=wrap;rounded=0;" vertex="1" parent="1">
          <mxGeometry x="-20" y="-660" width="510" height="30" as="geometry" />
        </mxCell>
      </root>
    </mxGraphModel>
  </diagram>
</mxfile>
